<svg xmlns="http://www.w3.org/2000/svg" width="1600" height="800" viewBox="0 0 1600 800" role="img" aria-labelledby="title desc">
  <title id="title">House address lucky number guide</title>
  <desc id="desc">A warm house entry scene with a number plaque and address cards.</desc>
  <defs>
    <linearGradient id="wall" x1="0" x2="1" y1="0" y2="1"><stop stop-color="#fff3df"/><stop offset="1" stop-color="#e8c18b"/></linearGradient>
    <linearGradient id="door" x1="0" x2="1"><stop stop-color="#24382f"/><stop offset="1" stop-color="#416253"/></linearGradient>
    <filter id="shadow" x="-20%" y="-20%" width="140%" height="140%"><feDropShadow dx="0" dy="24" stdDeviation="22" flood-color="#4d2c1a" flood-opacity=".22"/></filter>
  </defs>
  <rect width="1600" height="800" rx="52" fill="url(#wall)"/>
  <circle cx="1340" cy="176" r="118" fill="#8a2424" opacity=".14"/>
  <circle cx="250" cy="650" r="190" fill="#d9b66f" opacity=".20"/>
  <rect x="190" y="130" width="470" height="590" rx="42" fill="url(#door)" filter="url(#shadow)"/>
  <rect x="304" y="368" width="245" height="142" rx="26" fill="#fff8ea"/>
  <text x="426" y="464" text-anchor="middle" font-family="Georgia, serif" font-size="92" fill="#8a2424" font-weight="700">168</text>
  <circle cx="590" cy="432" r="32" fill="#d9b66f"/>
  <rect x="770" y="170" width="570" height="410" rx="44" fill="#fffaf1" filter="url(#shadow)"/>
  <rect x="832" y="236" width="178" height="214" rx="28" fill="#8a2424"/>
  <rect x="1045" y="236" width="178" height="214" rx="28" fill="#d9b66f"/>
  <text x="921" y="365" text-anchor="middle" font-family="Georgia, serif" font-size="94" fill="#fff8ea" font-weight="700">8</text>
  <text x="1134" y="365" text-anchor="middle" font-family="Georgia, serif" font-size="94" fill="#24382f" font-weight="700">9</text>
  <rect x="832" y="488" width="390" height="24" rx="12" fill="#d7c4a9"/>
  <rect x="832" y="532" width="270" height="18" rx="9" fill="#e4d5bf"/>
  <path d="M1266 356 l44 44 l88 -122" fill="none" stroke="#24382f" stroke-width="26" stroke-linecap="round" stroke-linejoin="round"/>
</svg>
