<svg xmlns="http://www.w3.org/2000/svg" width="1600" height="800" viewBox="0 0 1600 800" role="img" aria-labelledby="title desc">
  <title id="title">House address lucky number guide</title>
  <desc id="desc">A warm address plaque with numbers 6, 8, 9, and 4 used as a calm number meaning visual.</desc>
  <rect width="1600" height="800" rx="52" fill="#fff3df"/>
  <rect x="78" y="80" width="1444" height="640" rx="48" fill="#24382f"/>
  <path d="M78 536 C308 456 465 480 650 394 C840 306 1002 312 1228 386 C1338 422 1436 420 1522 382 L1522 720 L78 720 Z" fill="#8a2424" opacity=".88"/>
  <path d="M78 528 C320 440 520 462 705 356 C910 238 1102 262 1330 344 C1405 371 1467 374 1522 356" fill="none" stroke="#d9b66f" stroke-width="20" opacity=".82"/>
  <g transform="translate(230 156)">
    <path d="M0 250 L310 0 L620 250 V470 H0 Z" fill="#fff8ea"/>
    <path d="M-20 260 L310 -12 L640 260" fill="none" stroke="#d0a342" stroke-width="34" stroke-linecap="round" stroke-linejoin="round"/>
    <rect x="218" y="280" width="184" height="190" rx="14" fill="#8a2424"/>
    <rect x="72" y="288" width="104" height="86" rx="14" fill="#d9b66f"/>
    <rect x="444" y="288" width="104" height="86" rx="14" fill="#d9b66f"/>
  </g>
  <g transform="translate(935 170)">
    <rect width="370" height="318" rx="34" fill="#fffaf1" opacity=".96"/>
    <text x="185" y="112" text-anchor="middle" font-family="Georgia, serif" font-size="88" fill="#8a2424" font-weight="700">689</text>
    <line x1="72" x2="298" y1="154" y2="154" stroke="#d9b66f" stroke-width="12" stroke-linecap="round"/>
    <circle cx="108" cy="218" r="34" fill="#d9b66f"/>
    <circle cx="185" cy="218" r="34" fill="#8a2424"/>
    <circle cx="262" cy="218" r="34" fill="#7e9187"/>
  </g>
  <circle cx="1380" cy="174" r="72" fill="#d9b66f"/>
  <path d="M1345 174 H1415 M1380 139 V209" stroke="#8a2424" stroke-width="18" stroke-linecap="round"/>
</svg>
