<svg xmlns="http://www.w3.org/2000/svg" width="1600" height="900" viewBox="0 0 1600 900" role="img" aria-label="Lucky Numbers article-lucky-number-calculator-how-to-use.svg visual">
  <defs>
    <linearGradient id="g" x1="0" x2="1" y1="0" y2="1">
      <stop offset="0" stop-color="#f7efe0"/>
      <stop offset=".48" stop-color="#fffaf1"/>
      <stop offset="1" stop-color="#7a1f1f"/>
    </linearGradient>
    <pattern id="p" width="88" height="88" patternUnits="userSpaceOnUse">
      <path d="M0 44h88M44 0v88" stroke="#d8a03b" stroke-width="3" opacity=".16"/>
      <circle cx="44" cy="44" r="22" fill="none" stroke="#1f3d35" stroke-width="2" opacity=".12"/>
    </pattern>
  </defs>
  <rect width="1600" height="900" fill="url(#g)"/>
  <rect width="1600" height="900" fill="url(#p)"/>
  <path d="M0 735C240 650 430 700 620 625c230-92 420-250 710-175 116 30 201 86 270 145v305H0Z" fill="#7a1f1f" opacity=".18"/>
  <path d="M120 710C340 590 510 630 720 520c240-126 520-130 760 18" stroke="#1f3d35" stroke-width="18" stroke-linecap="round" opacity=".22" fill="none"/>
  <circle cx="1220" cy="160" r="88" fill="#d8a03b" opacity=".75"/><path d="M1150 160h140M1220 90v140" stroke="#7a1f1f" stroke-width="18" stroke-linecap="round"/>
  <g transform="translate(120 190)">
    <rect x="0" y="0" width="710" height="385" rx="34" fill="#ffffff" opacity=".78"/>
    <rect x="28" y="28" width="654" height="329" rx="24" fill="#f7efe0" opacity=".72"/>
    <text x="56" y="116" font-family="Georgia, serif" font-size="64" fill="#7a1f1f" font-weight="700">Lucky Numbers</text>
    <text x="58" y="178" font-family="Arial, sans-serif" font-size="28" fill="#1f3d35" opacity=".85">How to Use the Lucky Number Calculator</text>
    <path d="M58 238h360" stroke="#d8a03b" stroke-width="10" stroke-linecap="round"/>
    <circle cx="92" cy="296" r="28" fill="#d8a03b" opacity=".82"/>
    <circle cx="172" cy="296" r="28" fill="#7a1f1f" opacity=".78"/>
    <circle cx="252" cy="296" r="28" fill="#1f3d35" opacity=".58"/>
  </g>
</svg>