<svg xmlns="http://www.w3.org/2000/svg" width="1200" height="900" viewBox="0 0 1200 900" role="img" aria-labelledby="title desc">
  <title id="title">Address practical balance visual</title>
  <desc id="desc">A house address decision visual balancing number meaning with practical housing checks.</desc>
  <rect width="1200" height="900" rx="44" fill="#fff7e8"/>
  <circle cx="240" cy="220" r="92" fill="#d9b66f" opacity=".75"/>
  <circle cx="960" cy="690" r="130" fill="#8a2424" opacity=".18"/>
  <g transform="translate(250 170)">
    <path d="M350 90 V500" stroke="#24382f" stroke-width="18" stroke-linecap="round"/>
    <path d="M170 210 H530" stroke="#24382f" stroke-width="18" stroke-linecap="round"/>
    <path d="M170 210 L90 410 H250 Z" fill="#8a2424"/>
    <path d="M530 210 L450 410 H610 Z" fill="#7e9187"/>
    <rect x="278" y="500" width="144" height="42" rx="21" fill="#24382f"/>
    <text x="170" y="490" text-anchor="middle" font-family="Georgia, serif" font-size="82" fill="#8a2424" font-weight="700">8</text>
    <g transform="translate(455 455)">
      <rect width="150" height="102" rx="16" fill="#fffaf1" stroke="#d9b66f" stroke-width="5"/>
      <path d="M20 52 L75 14 L130 52 V92 H20 Z" fill="#d9b66f"/>
      <rect x="63" y="62" width="24" height="30" rx="4" fill="#8a2424"/>
    </g>
  </g>
  <g fill="#24382f" opacity=".16">
    <rect x="112" y="640" width="180" height="22" rx="11"/>
    <rect x="112" y="690" width="260" height="22" rx="11"/>
    <rect x="112" y="740" width="220" height="22" rx="11"/>
  </g>
</svg>
