<svg xmlns="http://www.w3.org/2000/svg" width="1200" height="900" viewBox="0 0 1200 900" role="img" aria-labelledby="title desc">
  <title id="title">House address review flow</title>
  <desc id="desc">A three step visual flow for checking address sequence, cultural comfort, and practical value.</desc>
  <rect width="1200" height="900" rx="44" fill="#fff7e8"/>
  <path d="M160 690 C340 580 448 610 602 502 C762 390 884 380 1040 430" fill="none" stroke="#d0a342" stroke-width="24" stroke-linecap="round" opacity=".72"/>
  <g transform="translate(130 170)">
    <rect width="265" height="355" rx="32" fill="#24382f"/>
    <circle cx="132" cy="94" r="52" fill="#d9b66f"/>
    <text x="132" y="112" text-anchor="middle" font-family="Inter, Arial, sans-serif" font-size="52" fill="#24382f" font-weight="700">1</text>
    <path d="M64 190 H201 M64 238 H201 M64 286 H168" stroke="#f3ce83" stroke-width="18" stroke-linecap="round"/>
  </g>
  <g transform="translate(468 170)">
    <rect width="265" height="355" rx="32" fill="#8a2424"/>
    <circle cx="132" cy="94" r="52" fill="#fff3df"/>
    <text x="132" y="112" text-anchor="middle" font-family="Inter, Arial, sans-serif" font-size="52" fill="#8a2424" font-weight="700">2</text>
    <circle cx="88" cy="224" r="32" fill="#d9b66f"/>
    <circle cx="132" cy="278" r="32" fill="#fff3df" opacity=".9"/>
    <circle cx="176" cy="224" r="32" fill="#7e9187"/>
  </g>
  <g transform="translate(806 170)">
    <rect width="265" height="355" rx="32" fill="#7e9187"/>
    <circle cx="132" cy="94" r="52" fill="#fff3df"/>
    <text x="132" y="112" text-anchor="middle" font-family="Inter, Arial, sans-serif" font-size="52" fill="#7e9187" font-weight="700">3</text>
    <path d="M78 248 L120 290 L194 196" fill="none" stroke="#fff3df" stroke-width="22" stroke-linecap="round" stroke-linejoin="round"/>
  </g>
</svg>
