<svg xmlns="http://www.w3.org/2000/svg" width="1200" height="900" viewBox="0 0 1200 900" role="img" aria-labelledby="title desc">
  <title id="title">Address number meaning cards</title>
  <desc id="desc">Large filled number tiles for address meaning review.</desc>
  <rect width="1200" height="900" rx="44" fill="#fff3df"/>
  <circle cx="1020" cy="150" r="140" fill="#d9b66f" opacity=".25"/>
  <circle cx="150" cy="760" r="190" fill="#8a2424" opacity=".10"/>
  <g transform="translate(120 150)" filter="drop-shadow(0 22px 24px rgba(60,36,18,.16))">
    <rect width="220" height="300" rx="34" fill="#24382f"/>
    <text x="110" y="170" text-anchor="middle" font-family="Georgia, serif" font-size="118" fill="#f3ce83" font-weight="700">6</text>
    <rect x="48" y="220" width="124" height="18" rx="9" fill="#f3ce83" opacity=".7"/>
  </g>
  <g transform="translate(370 150)" filter="drop-shadow(0 22px 24px rgba(60,36,18,.16))">
    <rect width="220" height="300" rx="34" fill="#8a2424"/>
    <text x="110" y="170" text-anchor="middle" font-family="Georgia, serif" font-size="118" fill="#fff8ea" font-weight="700">8</text>
    <rect x="48" y="220" width="124" height="18" rx="9" fill="#f3ce83" opacity=".8"/>
  </g>
  <g transform="translate(620 150)" filter="drop-shadow(0 22px 24px rgba(60,36,18,.16))">
    <rect width="220" height="300" rx="34" fill="#7e9187"/>
    <text x="110" y="170" text-anchor="middle" font-family="Georgia, serif" font-size="118" fill="#fff8ea" font-weight="700">9</text>
    <rect x="48" y="220" width="124" height="18" rx="9" fill="#f3ce83" opacity=".8"/>
  </g>
  <g transform="translate(870 150)" filter="drop-shadow(0 22px 24px rgba(60,36,18,.12))">
    <rect width="220" height="300" rx="34" fill="#fffaf1"/>
    <text x="110" y="170" text-anchor="middle" font-family="Georgia, serif" font-size="118" fill="#8a2424" font-weight="700">4</text>
    <rect x="48" y="220" width="124" height="18" rx="9" fill="#d7c4a9"/>
  </g>
  <rect x="190" y="575" width="820" height="140" rx="34" fill="#fffaf1" stroke="#e4c795" stroke-width="6"/>
  <circle cx="280" cy="645" r="38" fill="#d9b66f"/>
  <rect x="350" y="615" width="500" height="24" rx="12" fill="#d7c4a9"/>
  <rect x="350" y="660" width="360" height="18" rx="9" fill="#e4d5bf"/>
</svg>
