<svg xmlns="http://www.w3.org/2000/svg" width="1200" height="900" viewBox="0 0 1200 900" role="img" aria-labelledby="title desc">
  <title id="title">House address review flow</title>
  <desc id="desc">Three filled panels for checking sequence, comfort, and practical fit.</desc>
  <rect width="1200" height="900" rx="44" fill="#fff3df"/>
  <rect x="85" y="120" width="1030" height="660" rx="46" fill="#f5dfbd"/>
  <g transform="translate(150 200)" filter="drop-shadow(0 20px 24px rgba(67,40,22,.16))">
    <rect width="260" height="410" rx="36" fill="#24382f"/>
    <circle cx="130" cy="98" r="58" fill="#d9b66f"/>
    <text x="130" y="118" text-anchor="middle" font-family="Inter, Arial, sans-serif" font-size="56" fill="#24382f" font-weight="700">1</text>
    <rect x="62" y="194" width="136" height="28" rx="14" fill="#fff8ea"/>
    <rect x="62" y="252" width="170" height="22" rx="11" fill="#d9b66f"/>
    <rect x="62" y="304" width="118" height="22" rx="11" fill="#d9b66f" opacity=".7"/>
  </g>
  <g transform="translate(470 200)" filter="drop-shadow(0 20px 24px rgba(67,40,22,.16))">
    <rect width="260" height="410" rx="36" fill="#8a2424"/>
    <circle cx="130" cy="98" r="58" fill="#fff8ea"/>
    <text x="130" y="118" text-anchor="middle" font-family="Inter, Arial, sans-serif" font-size="56" fill="#8a2424" font-weight="700">2</text>
    <circle cx="92" cy="245" r="42" fill="#d9b66f"/>
    <circle cx="168" cy="245" r="42" fill="#fff8ea" opacity=".9"/>
    <rect x="72" y="326" width="116" height="20" rx="10" fill="#f3ce83"/>
  </g>
  <g transform="translate(790 200)" filter="drop-shadow(0 20px 24px rgba(67,40,22,.16))">
    <rect width="260" height="410" rx="36" fill="#7e9187"/>
    <circle cx="130" cy="98" r="58" fill="#fff8ea"/>
    <text x="130" y="118" text-anchor="middle" font-family="Inter, Arial, sans-serif" font-size="56" fill="#7e9187" font-weight="700">3</text>
    <path d="M78 258 L122 302 L194 206" fill="none" stroke="#fff8ea" stroke-width="24" stroke-linecap="round" stroke-linejoin="round"/>
  </g>
</svg>
